<svg width="18" height="28" viewBox="0 0 18 28" fill="none" xmlns="http://www.w3.org/2000/svg">
<path d="M15 22.5V5.03906H2.46094V22.5H15ZM15 0.0585938C15.6641 0.0585938 16.2305 0.3125 16.6992 0.820312C17.207 1.28906 17.4609 1.85547 17.4609 2.51953V25.0195C17.4609 25.6836 17.207 26.2695 16.6992 26.7773C16.2305 27.2852 15.6641 27.5391 15 27.5391H2.46094C1.79688 27.5391 1.21094 27.2852 0.703125 26.7773C0.234375 26.2695 0 25.6836 0 25.0195V2.51953C0 1.85547 0.234375 1.26953 0.703125 0.761719C1.21094 0.253906 1.79688 0 2.46094 0L15 0.0585938Z" fill="#A4DE02"/>
</svg>
