<svg width="28" height="25" viewBox="0 0 28 25" fill="none" xmlns="http://www.w3.org/2000/svg">
<path d="M25.0195 17.4609V2.46094H2.51953V17.4609H25.0195ZM25.0195 0C25.6836 0 26.2695 0.253906 26.7773 0.761719C27.2852 1.23047 27.5391 1.79688 27.5391 2.46094V17.4609C27.5391 18.125 27.2852 18.7109 26.7773 19.2188C26.2695 19.7266 25.6836 19.9805 25.0195 19.9805H16.2891V22.5H18.75V24.9609H8.78906V22.5H11.25V19.9805H2.51953C1.85547 19.9805 1.26953 19.7266 0.761719 19.2188C0.253906 18.7109 0 18.125 0 17.4609V2.46094C0 1.79688 0.253906 1.23047 0.761719 0.761719C1.26953 0.253906 1.85547 0 2.51953 0H25.0195Z" fill="#6B0F9C"/>
</svg>
