<svg width="27" height="27" viewBox="0 0 27 27" fill="none" xmlns="http://www.w3.org/2000/svg">
<path d="M22.2656 3.86719C24.7266 6.32812 26.25 9.55078 26.25 13.0664C26.25 20.2148 20.2734 26.0742 13.0664 26.0742C10.8984 26.0742 8.78906 25.4883 6.85547 24.4922L0 26.25L1.81641 19.5117C0.703125 17.5781 0.0585938 15.3516 0.0585938 13.0078C0.0585938 5.85938 5.91797 0 13.0664 0C16.582 0 19.8633 1.40625 22.2656 3.86719ZM13.0664 23.8477C19.043 23.8477 24.0234 18.9844 24.0234 13.0664C24.0234 10.1367 22.793 7.44141 20.7422 5.39062C18.6914 3.33984 15.9961 2.22656 13.125 2.22656C7.14844 2.22656 2.28516 7.08984 2.28516 13.0078C2.28516 15.0586 2.87109 17.0508 3.92578 18.8086L4.21875 19.2188L3.10547 23.2031L7.20703 22.0898L7.55859 22.3242C9.25781 23.3203 11.1328 23.8477 13.0664 23.8477ZM19.043 15.7617C19.3359 15.9375 19.5703 15.9961 19.6289 16.1719C19.7461 16.2891 19.7461 16.9336 19.4531 17.6953C19.1602 18.457 17.8711 19.1602 17.2852 19.2188C16.2305 19.3945 15.4102 19.3359 13.3594 18.3984C10.0781 16.9922 7.96875 13.7109 7.79297 13.5352C7.61719 13.3008 6.50391 11.7773 6.50391 10.1367C6.50391 8.55469 7.32422 7.79297 7.61719 7.44141C7.91016 7.08984 8.26172 7.03125 8.49609 7.03125C8.67188 7.03125 8.90625 7.03125 9.08203 7.03125C9.31641 7.03125 9.55078 6.97266 9.84375 7.61719C10.0781 8.26172 10.7812 9.84375 10.8398 10.0195C10.8984 10.1953 10.957 10.3711 10.8398 10.6055C10.2539 11.8359 9.55078 11.7773 9.90234 12.3633C11.1914 14.5312 12.4219 15.293 14.3555 16.2305C14.6484 16.4062 14.8242 16.3477 15.0586 16.1719C15.2344 15.9375 15.8789 15.1758 16.0547 14.8828C16.2891 14.5312 16.5234 14.5898 16.8164 14.707C17.1094 14.8242 18.6914 15.5859 19.043 15.7617Z" fill="white"/>
</svg>
